<?xml version="1.0" encoding="utf-8"?>
<!-- Generator: Adobe Illustrator 27.5.0, SVG Export Plug-In . SVG Version: 6.00 Build 0)  -->
<svg version="1.1" id="Capa_2" xmlns="http://www.w3.org/2000/svg" xmlns:xlink="http://www.w3.org/1999/xlink" x="0px" y="0px"
	 viewBox="0 0 877.05 202.23" style="enable-background:new 0 0 877.05 202.23;" xml:space="preserve">
<style type="text/css">
	.st0{stroke:#000000;stroke-miterlimit:10;}
	.st1{fill:#FFFFFF;}
	.st2{fill:#FFFFFF;stroke:#FFFFFF;stroke-miterlimit:10;}
</style>
<ellipse class="st0" cx="440.96" cy="99.45" rx="85.49" ry="86.58"/>
<path d="M10.49,33.14v132.48h53.76c0,0,15.12-2.16,20.64-11.52c2.5-4.24,4.8-7.94,6.31-12.74c1.4-4.47,4.28-14.05,0.89-25.18
	c-1.4-4.6-3.15-10.37-8.4-14.4c-4.68-3.6-10.18-4.31-10.08-6.48c0.06-1.27,1.97-1.62,4.8-3.84c0,0,3.05-2.39,6-7.2
	c4.08-6.63,3.45-14.57,3.12-18.72c-0.43-5.46-1.11-13.99-7.68-21.6c-6.01-6.95-13.52-10.03-17.04-10.08
	C10.49,33.14,10.49,33.14,10.49,33.14z"/>
<path class="st1" d="M59.23,48.53c11.76,2.76,13.2,12.12,13.2,12.12s1.8,10.68-0.84,20.04c-2.64,9.36-15.48,8.88-15.48,8.88H23.95
	V48.53H59.23z"/>
<path class="st1" d="M23.95,105.39v45.36h36.24c0,0,13.56-0.72,16.44-12.48s-0.84-22.68-0.84-22.68s-5.4-9.96-15.36-10.2
	S23.95,105.39,23.95,105.39z"/>
<path class="st0" d="M114.07,69.05c0,23.63,0,47.27,0,70.9c0.29,3.97,1.24,9.18,3.96,14.58c1.16,2.3,2.84,5.56,6.3,8.64
	c1.04,0.93,3.05,2.68,6.12,3.96c3.93,1.64,7.33,1.48,10.26,1.44c3.28-0.04,9.59-0.21,15.84-4.32c4.35-2.86,6.97-6.52,8.46-9.18
	l1.26-2.16v12.71h12.06V69.05h-13.68l0.18,61.9c-0.17,1.61-0.52,3.93-1.26,6.66c-1.15,4.23-2.14,7.84-5.22,11.16
	c-2.59,2.78-5.49,4.1-7.02,4.68c-4.46,1.67-8.29,1.13-9.9,0.88c-2.25-0.35-5.77-0.89-8.82-3.58c-4.82-4.24-4.87-10.62-4.86-11.88
	c-0.12-23.27-0.24-46.55-0.36-69.82H114.07z"/>
<path class="st0" d="M247.81,96.93l12.42-1.8c0,0,2.16-15.12-15.3-24.66c-17.46-9.54-36.54,4.32-36.54,4.32
	c-2.17,1.92-4.97,5.03-6.66,9.54c-1.84,4.89-1.52,9.16-1.26,12.6c0.18,2.43,0.39,5.17,1.66,8.51c1.9,4.96,5.59,9.75,5.54,9.67
	c0,0,7.56,5.4,20.16,9.36c12.6,3.96,18.54,6.84,18.54,6.84c3.5,4.21,4.34,10.02,2.16,14.94c-2.34,5.3-7.78,8.67-13.68,8.46
	c-3.3-0.24-6.6-0.48-9.9-0.72c-1.77-0.3-4.23-1-6.64-2.71c-6.84-4.84-7.19-13.5-7.22-14.75l-0.36-1.44l-12.96,1.44
	c0.13,3.13,0.68,7.53,2.59,12.42c3.08,7.89,8.06,12.85,10.91,15.3c3.53,1.72,9.11,3.86,16.2,4.34c12.03,0.83,21.16-3.61,25.02-5.78
	c0,0,6.3-5.4,9.54-11.52c3.24-6.12,0.9-24.84,0.9-24.84c-0.94-1.72-2.34-3.89-4.36-6.1c-2.08-2.27-4.17-3.88-5.84-4.98
	c-2.77-0.91-5.59-1.88-8.45-2.92c-5.32-1.93-10.38-3.94-15.19-5.98c-7.8-1.47-13.61-5.65-14.88-10.27
	c-0.92-3.32-0.24-5.75-0.24-5.75c0.65-2.32,2.52-5.04,2.52-5.04c0.76-0.83,1.97-1.94,3.71-2.83c2.71-1.4,5.24-1.52,6.55-1.49
	c1.38-0.22,3.09-0.38,5.04-0.29c2.34,0.1,4.31,0.51,5.83,0.94c1.6,0.94,4.42,2.9,6.77,6.37C246.79,91.66,247.54,95.09,247.81,96.93z
	"/>
<path class="st0" d="M328.08,96.93l12.42-1.8c0,0,2.16-15.12-15.3-24.66c-17.46-9.54-36.54,4.32-36.54,4.32
	c-2.17,1.92-4.97,5.03-6.66,9.54c-1.84,4.89-1.52,9.16-1.26,12.6c0.18,2.43,0.39,5.17,1.66,8.51c1.9,4.96,5.59,9.75,5.54,9.67
	c0,0,7.56,5.4,20.16,9.36c12.6,3.96,18.54,6.84,18.54,6.84c3.5,4.21,4.34,10.02,2.16,14.94c-2.34,5.3-7.78,8.67-13.68,8.46
	c-3.3-0.24-6.6-0.48-9.9-0.72c-1.77-0.3-4.23-1-6.64-2.71c-6.84-4.84-7.19-13.5-7.22-14.75l-0.36-1.44l-12.96,1.44
	c0.13,3.13,0.68,7.53,2.59,12.42c3.08,7.89,8.06,12.85,10.91,15.3c3.53,1.72,9.11,3.86,16.2,4.34c12.03,0.83,21.16-3.61,25.02-5.78
	c0,0,6.3-5.4,9.54-11.52c3.24-6.12,0.9-24.84,0.9-24.84c-0.94-1.72-2.34-3.89-4.36-6.1c-2.08-2.27-4.17-3.88-5.84-4.98
	c-2.77-0.91-5.59-1.88-8.45-2.92c-5.32-1.93-10.38-3.94-15.19-5.98c-7.8-1.47-13.61-5.65-14.88-10.27
	c-0.92-3.32-0.24-5.75-0.24-5.75c0.65-2.32,2.52-5.04,2.52-5.04c0.76-0.83,1.97-1.94,3.71-2.83c2.71-1.4,5.24-1.52,6.55-1.49
	c1.38-0.22,3.09-0.38,5.04-0.29c2.34,0.1,4.31,0.51,5.83,0.94c1.6,0.94,4.42,2.9,6.77,6.37C327.06,91.66,327.81,95.09,328.08,96.93z
	"/>
<ellipse class="st2" cx="441.13" cy="98.36" rx="72.9" ry="73.99"/>
<path class="st0" d="M481.72,58.05L454,106.29c0,0-4.32-1.44-4.86-3.96c-0.54-2.52,0-8.1,0-8.1l-3.78-3.78h-7.02
	c0,0-3.42-1.44-4.32-3.96L481.72,58.05z"/>
<path class="st0" d="M547.87,34.83v133.92h15.12v-60.12l23.04,0.72c0,0,8.28-1.08,16.92,14.04s23.04,45.36,23.04,45.36h18.72
	c-3.7-8.94-8.67-19.2-15.39-30.06c-7.24-11.7-14.77-21.3-21.57-28.95c-0.88-1.15-1.76-2.3-2.64-3.45c2.95-0.1,12.46-0.79,20.45-8.12
	c7.16-6.56,8.89-14.57,9.79-18.7c0.62-2.87,2.46-11.95-1.43-22.24c-5.77-15.25-19.64-21.29-22.33-22.4H547.87z"/>
<polygon class="st0" points="400.99,138.95 428.53,90.35 433.75,94.49 433.75,102.23 437.89,106.73 445.09,106.73 448.15,110.69 "/>
<path class="st2" d="M562.27,49.23v44.64h40.68c0,0,19.08-5.04,17.64-22.32s-9.72-18.72-16.2-22.32H562.27z"/>
<path class="st0" d="M659.78,71.38c0,23.63,0,47.27,0,70.9c0.29,3.97,1.24,9.18,3.96,14.58c1.16,2.3,2.84,5.56,6.3,8.64
	c1.04,0.93,3.05,2.68,6.12,3.96c3.93,1.64,7.33,1.48,10.26,1.44c3.28-0.04,9.59-0.21,15.84-4.32c4.35-2.86,6.97-6.52,8.46-9.18
	l1.26-2.16v12.71h12.06V71.38h-13.68l0.18,61.9c-0.17,1.61-0.52,3.93-1.26,6.66c-1.15,4.23-2.14,7.84-5.22,11.16
	c-2.59,2.78-5.49,4.1-7.02,4.68c-4.46,1.67-8.29,1.13-9.9,0.88c-2.25-0.35-5.77-0.89-8.82-3.58c-4.82-4.24-4.87-10.62-4.86-11.88
	c-0.12-23.27-0.24-46.55-0.36-69.82H659.78z"/>
<path class="st0" d="M803.95,123.75h59.04v-15.84c0,0-5.28-38.4-35.04-38.64c-29.76-0.24-37.44,31.44-36.96,40.32l-0.02,22.08
	c0.12,4.37,0.98,12,5.54,19.92c1.68,2.92,4.92,8.41,11.52,12.72c7.99,5.22,16.09,5.59,19.68,5.52c3.29,0.07,10.05-0.28,17.04-4.32
	c7.1-4.11,10.61-9.83,12.43-12.9c2.92-4.89,4.22-9.47,4.85-12.54c-0.33-0.36-0.6-0.8-1.02-0.96c-1.44-0.54-4.74-1.2-12.18-1.68
	c-0.23,1.33-0.65,3.18-1.44,5.28c-0.6,1.6-1.79,4.79-4.08,7.44c-4.86,5.64-12.42,6.24-15.36,6.48c-2.34,0.19-5,0.37-8.16-0.72
	c-4.42-1.53-6.96-4.56-8.38-6.27C803.88,140.65,803.9,126.54,803.95,123.75z"/>
<path class="st0" d="M751.15,47.19v24.19l-10.08,0.17v12.36h10.08v68.16c0,0,0.96,15.36,11.28,16.68h16.32v-14.76l-10.32,0.24
	c0,0-3.12-1.2-4.32-5.28V83.91l13.44-0.24l0.24-12.12h-13.68v-34.2L751.15,47.19z"/>
<path class="st2" d="M804.43,110.55h44.88c0.14-1.66,0.96-13.97-8.08-21.94c-1.47-1.3-6.67-5.88-14.25-5.66
	c-6.64,0.19-11.1,3.96-12.95,5.52C804.85,96.21,804.46,108.13,804.43,110.55z"/>
</svg>
