<?xml version="1.0" encoding="utf-8"?>
<!-- Generator: Adobe Illustrator 27.5.0, SVG Export Plug-In . SVG Version: 6.00 Build 0)  -->
<svg version="1.1" id="Capa_2" xmlns="http://www.w3.org/2000/svg" xmlns:xlink="http://www.w3.org/1999/xlink" x="0px" y="0px"
	 viewBox="0 0 396 103.56" style="enable-background:new 0 0 396 103.56;" xml:space="preserve">
<style type="text/css">
	.st0{fill:#FFFFFF;stroke:#FFFFFF;stroke-miterlimit:10;}
</style>
<path class="st0" d="M45.74,48.46L27.92,58.2l18.54,9.88c0,0,1.62,6.3,0,7.38c-1.62,1.08-2.16,0.36-4.14,0L19.82,63.4
	c0,0-2.16-6.48,0-10.44l24.84-12.78c0,0,2.7,0.18,2.52,3.24c0,1.08,0,2.16,0.01,3.24C46.7,47.26,46.22,47.86,45.74,48.46z"/>
<path class="st0" d="M80.21,53.41v-0.54c0,0,5.04-4.05,4.14-10.71c-0.9-6.66-4.86-10.98-11.61-11.88H56.81c0,0-1.44,0.18-1.44,1.71
	c0,14.31,0,28.62,0,42.93c0,0-0.09,1.35,2.25,1.98h17.1c0,0,10.35-3.42,10.17-11.16C84.71,58,84.71,57.19,80.21,53.41z M64.19,39.19
	h7.92c3.6,1.35,3.51,3.87,3.15,6.39c-0.36,2.52-2.61,3.51-2.61,3.51h-8.46V39.19z M72.83,67.72h-8.64V57.8h8.19
	c2.43,0.25,3.51,2,3.87,5.42C76.61,66.64,72.83,67.72,72.83,67.72z"/>
<path class="st0" d="M102.35,27.67v6.48c0,0,0.54,1.8,1.98,1.8h5.58c0,0,2.07-1.44,1.53-2.61l0.09-5.67c0,0-1.17-1.8-3.42-1.35
	l-3.96-0.07C104.15,26.25,102.35,26.32,102.35,27.67z"/>
<path class="st0" d="M111.53,42.07v26.55h9.54c0,0,2.07,1.17,1.62,2.25l0.06,4.23c0,0-0.78,1.98-2.4,1.8H92.9
	c0,0-1.44-0.36-2.25-2.25v-4.77c0,0,1.35-2.07,2.79-1.44l8.91,0.09V48.19h-6.39c0,0-2.88-0.45-2.25-2.52l0.18-4.23
	c0,0,0.54-1.53,2.7-1.53h12.51C109.1,39.91,111.53,40,111.53,42.07z"/>
<path class="st0" d="M132.41,32.17v7.74h-3.6c0,0-2.34,0.09-2.07,2.43l-0.02,3.96c0,0,0.02,2.25,2.18,1.98l3.51,0.02v16.99
	c-0.01,1.02,0.11,2.5,0.71,4.14c1.11,3.02,3.18,4.77,4.15,5.49c1.04,0.78,3.2,2.19,6.3,2.7c3.43,0.57,6.15-0.26,7.38-0.72
	c0,0,6.03-1.35,7.47-4.95c0.29-0.71,0.18-1.32,0.18-1.32c-0.18-1.02-1.1-1.61-1.71-2.01c-1.24-0.8-2.51-1-3.34-1.04
	c-1.47,0.47-2.93,0.93-4.4,1.4c0,0-5.4,3.24-7.74-3.33l0.27-17.37l9.81-0.18c0,0,1.53,0,1.71-2.25v-4.32c0,0-0.9-1.98-2.16-1.62
	h-9.36l-0.09-7.74c0,0-0.09-1.62-2.07-1.89h-5.49C134.03,30.28,132.05,30.46,132.41,32.17z"/>
<path class="st0" d="M173.72,43.15v20.34c0,0,0.45,4.77,3.96,4.68l6.03,0l3.33-3.15c0,0,1.26-1.26,2.88,0.45l3.69,2.7
	c0,0,1.35,1.89-0.99,4.14c0,0-4.41,4.61-6.84,4.6c0,0-6.66,1.61-9.18,0.53c0,0-5.04,0.09-8.91-4.95c0,0-3.6-4.68-3.15-9.99
	l-0.04-21.15c0,0,0.76-6.12,6.7-9.63c0.61-0.41,1.36-0.84,2.25-1.2c2.34-0.95,4.48-0.97,5.8-0.87c1.26,0.11,2.63,0.28,4.1,0.54
	c1.45,0.26,2.79,0.58,4,0.92c0.87,0.41,1.99,1.04,3.14,2.01c1.03,0.87,1.79,1.75,2.32,2.48c0,0,2.34,1.89-0.27,4.32l-3.78,2.7
	c0,0-1.44,1.08-3.15-0.9c0,0-0.9-1.98-3.06-2.61C180.38,38.47,175.52,37.57,173.72,43.15z"/>
<path class="st0" d="M228.62,50.71c-0.56-2.25-1.29-5.22-3.78-7.74c-3.64-3.68-8.51-3.85-9.67-3.87c-0.41-0.01-7.77-0.04-11.65,5.31
	c-1.26,1.74-1.72,3.44-2.22,5.28c-0.65,2.41-0.66,4.59-0.66,8.85c0,4.08,0.01,6.17,0.63,8.46c0.4,1.5,0.9,3.33,2.16,5.13
	c2.54,3.63,7.21,5.73,11.74,5.68c4.69-0.05,9.88-2.4,12.02-6.49c0.76-1.46,1.02-3.01,1.53-6.12c0.11-0.69,0.55-3.43,0.53-7.2
	C229.23,55.03,229.22,53.13,228.62,50.71z M220.25,58.58c-0.14,6.49-0.04,7.28-0.81,8.42c-0.1,0.15-1.76,2.55-4.32,2.51
	c-1.98-0.03-3.33-1.5-3.6-1.79c-1.42-1.55-1.39-3.19-1.53-9.15c-0.18-7.32-0.33-8.94,1.01-9.98c1.23-0.95,3.1-0.96,4.12-0.96
	c1.35,0,2.61,0,3.61,0.81c1.2,0.98,1.33,2.61,1.52,5.77C220.33,55.54,220.3,56.26,220.25,58.58z"/>
<path class="st0" d="M262.52,25.48l-4.92-0.14c-0.26,0.08-0.6,0.22-0.92,0.52c-0.96,0.91-0.67,2.37-0.64,2.5l-0.24,13.2
	c0,0-2.76-2.81-7.02-2.93c-0.36-0.01-4.56-0.11-7.86,2.93c-3.69,3.4-3.89,8.57-4.08,13.2c-0.04,1,0.05,2.75,0.24,6.24
	c0.28,5.3,0.57,6.88,0.96,8.28c0.64,2.32,1.54,4.08,2.16,5.16c0.45,0.51,3.18,3.5,7.73,3.65c4.49,0.15,7.38-2.57,7.87-3.05
	c0,0,0.72,1.92,1.8,1.8l6-0.24c0,0,1.56-0.48,1.56-2.16v-47.4C265.16,27.04,264.32,24.76,262.52,25.48z M255.92,58.54
	c-0.14,6.49-0.04,7.28-0.81,8.42c-0.1,0.15-1.76,2.55-4.32,2.51c-1.98-0.03-3.33-1.5-3.6-1.79c-0.97-1.05-1.54-2.44-1.53-9.15
	c0.01-7.49,0.74-8.84,1.74-9.66c1.34-1.1,3.17-1.26,3.39-1.28c0.74-0.06,2.4-0.18,3.61,0.81c1.2,0.98,1.33,2.61,1.52,5.77
	C256,55.51,255.97,56.22,255.92,58.54z"/>
<path class="st0" d="M301.99,49.72c-0.18-1.07-0.59-2.67-1.62-4.34c-2.41-3.92-6.38-5.19-7.74-5.62c-1.55-0.49-6.32-2.01-11.16,0.6
	c-5.45,2.93-6.61,8.73-6.76,9.53c-0.94,4.93-0.96,9.03-0.8,11.83c0.28,4.93,0.5,8.07,2.76,10.92c2.17,2.74,5.14,3.85,6.84,4.32
	c1.52,0.49,4.44,1.21,8.01,0.6c1.75-0.3,3.68-0.91,5.67-2.04l3.36-2.88c0.05-0.12,0.6-1.63-0.31-2.81c-0.39-0.51-0.9-0.75-1.18-0.86
	c-1.26-0.74-2.53-1.47-3.79-2.21c-0.54,0.6-2.22,2.28-4.92,2.72c-0.85,0.14-3.04,0.49-4.92-0.8c-2-1.37-2.91-4.12-2.4-6.96h17.4
	c0,0,2.04-1.28,1.44-3.52L301.99,49.72z M292.88,54.28h-9.84c0,0-1.08-7.08,4.92-7.32C293.96,46.72,292.88,54.28,292.88,54.28z"/>
<path class="st0" d="M320.24,75.28l16.32-42.6c0,0,0.48-2.52-2.4-2.4l-4.92,0c0,0-1.44,0-1.92,3l-15.6,40.68
	c0,0-0.84,2.76,1.08,2.88h6C318.8,76.84,319.59,76.97,320.24,75.28z"/>
<path class="st0" d="M365.48,58.2l-18,10c0,0-1.56,0.36-0.84,4.56L347,75.4c0,0,1.08,1.8,2.28,0.84
	c7.84-4.13,15.67-8.26,23.51-12.38c0.31-0.16,1.34-0.75,1.87-2.03c0.39-0.95,0.31-1.81,0.25-2.18c-0.01-0.95-0.02-1.91-0.03-2.86
	c0.07-0.37,0.27-1.59-0.39-2.91c-0.72-1.42-1.95-1.97-2.28-2.11c-7.64-3.88-15.28-7.76-22.92-11.64c0,0-3.26-0.6-2.83,2.88
	l-0.04,4.68c0,0-0.37,1.08,2.87,2.28L365.48,58.2z"/>
</svg>
